<svg xmlns="http://www.w3.org/2000/svg" xmlns:xlink="http://www.w3.org/1999/xlink" aria-hidden="true" role="img" class="iconify iconify--logos" width="35.93" height="32" preserveAspectRatio="xMidYMid meet" viewBox="0 0 256 228"><defs><linearGradient id="IconifyId1813088fe1fbc01fb466" x1="-0.018%" x2="99.982%" y1="50%" y2="50%"><stop offset="0%" stop-color="#00D8FF"></stop><stop offset="100%" stop-color="#00D8FF"></stop></linearGradient><linearGradient id="IconifyId1813088fe1fbc01fb467" x1="-0.018%" x2="99.982%" y1="50%" y2="50%"><stop offset="0%" stop-color="#00D8FF"></stop><stop offset="100%" stop-color="#00D8FF"></stop></linearGradient><linearGradient id="IconifyId1813088fe1fbc01fb468" x1="-0.018%" x2="99.982%" y1="50%" y2="50%"><stop offset="0%" stop-color="#00D8FF"></stop><stop offset="100%" stop-color="#00D8FF"></stop></linearGradient></defs><path d="M210.483 73.824a171.49 171.49 0 0 0-8.24-2.597c.465-1.9.893-3.777 1.273-5.621c6.238-30.281 2.16-54.676-11.769-62.708c-13.355-7.7-35.196.329-57.254 19.526a171.23 171.23 0 0 0-6.375 5.848a155.866 155.866 0 0 0-4.241-3.917C100.759 3.829 77.587-4.822 63.673 3.233C50.33 10.957 46.379 34.44 52.4 64.478c.412 2.004.869 3.96 1.362 5.858a145.52 145.52 0 0 0-7.657 2.361C20.069 82.562 0 98.158 0 113.668c0 15.51 20.069 31.105 46.105 37.588a145.567 145.567 0 0 0 7.657 2.361A145.016 145.016 0 0 0 52.4 159.476c-6.021 30.038-2.07 53.521 11.273 61.245c13.914 8.055 37.086-.404 59.118-19.526a145.567 145.567 0 0 0 4.241-3.917a171.175 171.175 0 0 0 6.375 5.848c22.058 19.197 43.899 27.226 57.254 19.526c13.929-8.032 18.007-32.427 11.769-62.708a145.567 145.567 0 0 0-1.273-5.621a171.49 171.49 0 0 0 8.24-2.597C235.931 144.773 256 129.178 256 113.668c0-15.51-20.069-31.105-45.517-39.844zM128.004 218.269c-16.425 0-29.741-13.316-29.741-29.741s13.316-29.741 29.741-29.741s29.741 13.316 29.741 29.741s-13.316 29.741-29.741 29.741zm0-59.482c-16.425 0-29.741-13.316-29.741-29.741s13.316-29.741 29.741-29.741s29.741 13.316 29.741 29.741s-13.316 29.741-29.741 29.741zm0-59.482c-16.425 0-29.741-13.316-29.741-29.741s13.316-29.741 29.741-29.741s29.741 13.316 29.741 29.741s-13.316 29.741-29.741 29.741z" fill="url(#IconifyId1813088fe1fbc01fb466)"></path><path d="M128.004 218.269c-16.425 0-29.741-13.316-29.741-29.741s13.316-29.741 29.741-29.741s29.741 13.316 29.741 29.741s-13.316 29.741-29.741 29.741zm0-59.482c-16.425 0-29.741-13.316-29.741-29.741s13.316-29.741 29.741-29.741s29.741 13.316 29.741 29.741s-13.316 29.741-29.741 29.741zm0-59.482c-16.425 0-29.741-13.316-29.741-29.741s13.316-29.741 29.741-29.741s29.741 13.316 29.741 29.741s-13.316 29.741-29.741 29.741z" fill="url(#IconifyId1813088fe1fbc01fb467)"></path><path d="M128.004 218.269c-16.425 0-29.741-13.316-29.741-29.741s13.316-29.741 29.741-29.741s29.741 13.316 29.741 29.741s-13.316 29.741-29.741 29.741zm0-59.482c-16.425 0-29.741-13.316-29.741-29.741s13.316-29.741 29.741-29.741s29.741 13.316 29.741 29.741s-13.316 29.741-29.741 29.741zm0-59.482c-16.425 0-29.741-13.316-29.741-29.741s13.316-29.741 29.741-29.741s29.741 13.316 29.741 29.741s-13.316 29.741-29.741 29.741z" fill="url(#IconifyId1813088fe1fbc01fb468)"></path></svg> 